<?xml version="1.0" encoding="utf-8"?>
<!-- Generator: Adobe Illustrator 22.1.0, SVG Export Plug-In . SVG Version: 6.00 Build 0)  -->
<svg version="1.1" id="Capa_1" xmlns="http://www.w3.org/2000/svg" xmlns:xlink="http://www.w3.org/1999/xlink" x="0px" y="0px"
	 viewBox="0 0 2601.5 604.4" style="enable-background:new 0 0 2601.5 604.4;" xml:space="preserve">
<style type="text/css">
	.st0{fill:#B7B7B7;}
	.st1{enable-background:new    ;}
</style>
<title>lanline</title>
<path class="st0" d="M403.6,69.3C311.3-23,161.7-23.1,69.3,69.1c-0.1,0.1-0.1,0.1-0.2,0.2c-86.4,86.4-92.4,224.7-14.9,318
	c-7.6,15.3-19.8,33.1-37.9,42C5.4,434.7,0.9,448,6.3,459c3.2,6.5,9.3,11,16.5,12.1c6.2,0.9,12.4,1.4,18.7,1.4
	c20.9,0,51.7-4.9,83.2-27.6c115,61.8,258.4,18.6,320.2-96.4C494.2,256.5,477.4,143.1,403.6,69.3z M384.5,384.6
	c-67.4,67.5-171.9,80.9-254.2,32.6c-5.3-3.1-12.1-2.3-16.4,2.1c-0.4,0.2-0.8,0.5-1.1,0.8c-27.1,21-53.7,25.4-71.3,25.4h-0.1
	c20.3-14.8,33.1-36.8,40.6-53.9c1.2-2.7,1.4-5.8,0.7-8.7c-0.3-2.8-1.5-5.5-3.3-7.6C6.2,292.6,10,166.6,88.2,88.4
	c81.7-81.7,214.6-81.7,296.2,0C466.2,170.1,466.2,302.9,384.5,384.6L384.5,384.6z"/>
<circle class="st0" cx="236.4" cy="236.5" r="16.6"/>
<circle class="st0" cx="322" cy="236.5" r="16.6"/>
<circle class="st0" cx="150.8" cy="236.5" r="16.6"/>
<g class="st1">
	<path class="st0" d="M589.7,459.2V76.7h44.5v342.2H803v40.3H589.7z"/>
	<path class="st0" d="M1108.3,459.2l-47.6-121.7H907.3l-47.1,121.7h-45L966.5,75.1h37.4l150.4,384.1H1108.3z M1046.8,297.5
		L1002.3,179c-5.8-15-11.7-33.4-17.8-55.2c-3.8,16.7-9.3,35.2-16.5,55.2l-45,118.5H1046.8z"/>
	<path class="st0" d="M1505.7,459.2H1455l-209.1-321h-2.1c2.8,37.7,4.2,72.2,4.2,103.6v217.4h-41.1V76.7h50.2l208.5,319.7h2.1
		c-0.4-4.7-1.1-19.8-2.4-45.4c-1.2-25.6-1.7-43.8-1.3-54.8V76.7h41.6V459.2z"/>
	<path class="st0" d="M1610.9,459.2V76.7h44.5v342.2h168.8v40.3H1610.9z"/>
	<path class="st0" d="M1878.8,94.7c0-9.9,2.4-17.2,7.3-21.8c4.9-4.6,11-6.9,18.3-6.9c7,0,13,2.4,18.1,7.1c5.1,4.7,7.6,11.9,7.6,21.7
		c0,9.8-2.5,17.1-7.6,21.8c-5.1,4.8-11.1,7.2-18.1,7.2c-7.3,0-13.4-2.4-18.3-7.2C1881.3,111.8,1878.8,104.5,1878.8,94.7z
		 M1925.9,459.2h-43.4V172.4h43.4V459.2z"/>
	<path class="st0" d="M2214.3,459.2V273.7c0-23.4-5.3-40.8-16-52.3c-10.6-11.5-27.3-17.3-50-17.3c-30,0-52,8.1-65.9,24.3
		c-14,16.2-20.9,43-20.9,80.3v150.4H2018V172.4h35.3l7.1,39.2h2.1c8.9-14.1,21.4-25.1,37.4-32.8c16-7.8,33.9-11.6,53.6-11.6
		c34.5,0,60.5,8.3,78,25c17.4,16.7,26.2,43.3,26.2,79.9v187.1H2214.3z"/>
	<path class="st0" d="M2468.1,464.4c-42.4,0-75.8-12.9-100.3-38.7c-24.5-25.8-36.8-61.7-36.8-107.5c0-46.2,11.4-82.9,34.1-110.2
		c22.8-27.2,53.3-40.8,91.7-40.8c35.9,0,64.4,11.8,85.3,35.5c20.9,23.6,31.4,54.8,31.4,93.5v27.5H2376c0.9,33.7,9.4,59.2,25.5,76.7
		c16.1,17.4,38.9,26.2,68.2,26.2c30.9,0,61.4-6.5,91.6-19.4v38.7c-15.4,6.6-29.9,11.4-43.6,14.3C2504,463,2487.4,464.4,2468.1,464.4
		z M2456.3,203.6c-23,0-41.4,7.5-55.1,22.5c-13.7,15-21.8,35.8-24.2,62.3h149.9c0-27.4-6.1-48.4-18.3-62.9
		C2496.4,210.8,2479,203.6,2456.3,203.6z"/>
</g>
</svg>
