<svg id="Capa_1" data-name="Capa 1" xmlns="http://www.w3.org/2000/svg" viewBox="0 0 2601.49 604.4"><defs><style>.cls-1,.cls-2{fill:#b7b7b7;}.cls-2{font-size:535.85px;font-family:OpenSans, Open Sans;}</style></defs><title>lanline</title><path class="cls-1" d="M403.58,69.3a236.35,236.35,0,0,0-334.4,0c-86.4,86.4-92.4,224.7-14.9,318-7.6,15.3-19.8,33.1-37.9,42a22.18,22.18,0,0,0,6.4,41.8,122.22,122.22,0,0,0,18.7,1.4c20.9,0,51.7-4.9,83.2-27.6A236.42,236.42,0,0,0,403.58,69.3Zm-19.1,315.3a209.44,209.44,0,0,1-254.2,32.6,13.44,13.44,0,0,0-16.4,2.1,4.44,4.44,0,0,0-1.1.8c-27.1,21-53.7,25.4-71.3,25.4h-.1c20.3-14.8,33.1-36.8,40.6-53.9a13.81,13.81,0,0,0,.7-8.7,14,14,0,0,0-3.3-7.6C6.18,292.6,10,166.6,88.18,88.4c81.7-81.7,214.6-81.7,296.2,0C466.18,170.1,466.18,302.9,384.48,384.6Z" transform="translate(-0.02 0)"/><circle class="cls-1" cx="236.36" cy="236.5" r="16.6"/><circle class="cls-1" cx="321.96" cy="236.5" r="16.6"/><circle class="cls-1" cx="150.76" cy="236.5" r="16.6"/><text class="cls-2" transform="translate(537.12 459.18)">LANLine</text></svg>